<?xml version="1.0" encoding="UTF-8" standalone="no"?>
<!DOCTYPE svg PUBLIC "-//W3C//DTD SVG 1.1//EN" "http://www.w3.org/Graphics/SVG/1.1/DTD/svg11.dtd">
<svg width="100%" height="100%" viewBox="0 0 1000 500" version="1.1" xmlns="http://www.w3.org/2000/svg" xmlns:xlink="http://www.w3.org/1999/xlink" xml:space="preserve" xmlns:serif="http://www.serif.com/" style="fill-rule:evenodd;clip-rule:evenodd;stroke-linejoin:round;stroke-miterlimit:2;">
    <g transform="matrix(1,0,0,1,-28.1761,0)">
        <g id="ArtBoard1" transform="matrix(2,0,0,1,28.1761,0)">
            <rect x="0" y="0" width="500" height="500" style="fill:none;"/>
            <g transform="matrix(0.497285,0,0,0.994236,122.522,-497.562)">
                <path d="M349.372,622.452L163.304,622.452L163.304,881.228L279.172,881.34L279.172,810.759L349.372,810.647L349.372,622.452Z"/>
            </g>
            <g transform="matrix(0.5,0,0,1,122.783,-501.014)">
                <path d="M201.972,662.441L201.972,839.586L236.972,839.586L236.972,769.34L306.706,769.34L306.706,734.34L236.972,734.34L236.972,697.441L346.972,697.441L346.972,662.441L201.972,662.441Z" style="fill:rgb(220,223,228);"/>
            </g>
        </g>
    </g>
</svg>
