<?xml version="1.0" encoding="UTF-8" standalone="no"?>
<!DOCTYPE svg PUBLIC "-//W3C//DTD SVG 1.1//EN" "http://www.w3.org/Graphics/SVG/1.1/DTD/svg11.dtd">
<svg width="100%" height="100%" viewBox="0 0 1000 500" version="1.1" xmlns="http://www.w3.org/2000/svg" xmlns:xlink="http://www.w3.org/1999/xlink" xml:space="preserve" xmlns:serif="http://www.serif.com/" style="fill-rule:evenodd;clip-rule:evenodd;stroke-linecap:round;stroke-linejoin:round;stroke-miterlimit:1.5;">
    <g id="ArtBoard1" transform="matrix(2,0,0,1,0,0)">
        <rect x="0" y="0" width="500" height="500" style="fill:none;"/>
        <g transform="matrix(0.499623,0,0,0.999246,125.094,6.18851)">
            <circle cx="250" cy="250" r="200.151" style="fill:none;stroke:rgb(171,178,191);stroke-width:20.02px;"/>
        </g>
        <g transform="matrix(0.5,0,0,1,125,6)">
            <rect x="108.606" y="108.606" width="282.787" height="282.787" style="fill:none;stroke:rgb(171,178,191);stroke-width:20px;"/>
        </g>
        <g transform="matrix(0.5,0,0,1,125,6)">
            <path d="M250,108.606L391.394,391.394L108.606,391.394L250,108.606Z" style="fill:none;stroke:rgb(171,178,191);stroke-width:20px;"/>
        </g>
        <g transform="matrix(0.499623,0,0,0.999246,125.094,0.188513)">
            <circle cx="250" cy="250" r="200.151" style="fill:none;stroke:rgb(220,223,228);stroke-width:20.02px;"/>
        </g>
        <g transform="matrix(0.5,0,0,1,125,2.84217e-14)">
            <rect x="108.606" y="108.606" width="282.787" height="282.787" style="fill:none;stroke:rgb(220,223,228);stroke-width:20px;"/>
        </g>
        <g transform="matrix(0.5,0,0,1,125,2.84217e-14)">
            <path d="M250,108.606L391.394,391.394L108.606,391.394L250,108.606Z" style="fill:none;stroke:rgb(220,223,228);stroke-width:20px;"/>
        </g>
    </g>
</svg>
