<?xml version="1.0" encoding="UTF-8" standalone="no"?>
<!DOCTYPE svg PUBLIC "-//W3C//DTD SVG 1.1//EN" "http://www.w3.org/Graphics/SVG/1.1/DTD/svg11.dtd">
<svg width="100%" height="100%" viewBox="0 0 500 500" version="1.1" xmlns="http://www.w3.org/2000/svg" xmlns:xlink="http://www.w3.org/1999/xlink" xml:space="preserve" xmlns:serif="http://www.serif.com/" style="fill-rule:evenodd;clip-rule:evenodd;stroke-linejoin:bevel;stroke-miterlimit:1.5;">
    <g transform="matrix(1,0,0,1,-1094.85,-580.535)">
        <g id="ArtBoard2" transform="matrix(1,0,0,1.00019,594.847,60.3506)">
            <rect x="500" y="520.084" width="500" height="499.903" style="fill:none;"/>
            <g transform="matrix(1.76502,0,0,1.76468,-1622.86,-686.355)">
                <path d="M1471.91,821.141L1216.85,821.141L1216.85,857.702C1216.85,877.489 1232.92,893.553 1252.7,893.553L1298.25,893.553C1318.04,893.553 1334.1,877.489 1334.1,857.702C1334.1,856.69 1334.06,855.689 1333.98,854.699L1333.98,837.26L1354.78,837.26L1354.78,854.699C1354.7,855.689 1354.65,856.69 1354.65,857.702C1354.65,877.489 1370.72,893.553 1390.51,893.553L1436.05,893.553C1455.84,893.553 1471.91,877.489 1471.91,857.702L1471.91,821.141Z" style="fill:rgb(171,178,191);"/>
            </g>
            <g transform="matrix(1.8118,0,0,1.8131,-1685.6,-729.766)">
                <path d="M1401.12,766.773L1466.11,825.943L1222.46,825.943L1287.48,766.371" style="fill:none;stroke:rgb(171,178,191);stroke-width:7.17px;"/>
            </g>
            <g transform="matrix(1.76502,0,0,1.76468,-1622.86,-696.232)">
                <path d="M1471.91,821.141L1216.85,821.141L1216.85,857.702C1216.85,877.489 1232.92,893.553 1252.7,893.553L1298.25,893.553C1318.04,893.553 1334.1,877.489 1334.1,857.702C1334.1,856.69 1334.06,855.689 1333.98,854.699L1333.98,837.26L1354.78,837.26L1354.78,854.699C1354.7,855.689 1354.65,856.69 1354.65,857.702C1354.65,877.489 1370.72,893.553 1390.51,893.553L1436.05,893.553C1455.84,893.553 1471.91,877.489 1471.91,857.702L1471.91,821.141Z" style="fill:rgb(220,223,228);"/>
            </g>
            <g transform="matrix(1.8118,0,0,1.8131,-1685.6,-739.914)">
                <path d="M1401.12,766.773L1466.11,825.943L1222.46,825.943L1287.48,766.371" style="fill:none;stroke:rgb(220,223,228);stroke-width:7.17px;"/>
            </g>
        </g>
    </g>
</svg>
