<?xml version="1.0" encoding="UTF-8" standalone="no"?>
<!DOCTYPE svg PUBLIC "-//W3C//DTD SVG 1.1//EN" "http://www.w3.org/Graphics/SVG/1.1/DTD/svg11.dtd">
<svg width="100%" height="100%" viewBox="0 0 399 399" version="1.1" xmlns="http://www.w3.org/2000/svg" xmlns:xlink="http://www.w3.org/1999/xlink" xml:space="preserve" xmlns:serif="http://www.serif.com/" style="fill-rule:evenodd;clip-rule:evenodd;stroke-linejoin:round;stroke-miterlimit:2;">
    <g transform="matrix(1,0,0,1,-612.54,-1181.6)">
        <g id="ArtBoard2" transform="matrix(0.797445,0,0,0.797599,213.817,766.786)">
            <rect x="500" y="520.084" width="500" height="499.903" style="fill:none;"/>
            <g transform="matrix(1.254,0,0,1.25376,597.415,587.544)">
                <text x="0px" y="14.6px" style="font-family:'JetBrainsMono-BoldItalic', 'JetBrains Mono';font-weight:700;font-style:italic;font-size:20px;fill:rgb(171,178,191);">_______________</text>
                <text x="0px" y="46.6px" style="font-family:'JetBrainsMono-BoldItalic', 'JetBrains Mono';font-weight:700;font-style:italic;font-size:20px;fill:rgb(171,178,191);">&lt; /R/STARTPAGES &gt;</text>
                <text x="0px" y="78.6px" style="font-family:'JetBrainsMono-BoldItalic', 'JetBrains Mono';font-weight:700;font-style:italic;font-size:20px;fill:rgb(171,178,191);">---------------</text>
                <text x="24px" y="110.6px" style="font-family:'JetBrainsMono-BoldItalic', 'JetBrains Mono';font-weight:700;font-style:italic;font-size:20px;fill:rgb(171,178,191);">\</text>
                <path d="M60.22,143.1L82.04,143.1L81.7,145.36L59.86,145.36L60.22,143.1Z" style="fill:rgb(171,178,191);"/>
                <text x="24px" y="142.6px" style="font-family:'JetBrainsMono-BoldItalic', 'JetBrains Mono';font-weight:700;font-style:italic;font-size:20px;fill:rgb(171,178,191);">\ ^<tspan x="84px " y="142.6px ">^</tspan></text>
                <text x="48px" y="174.6px" style="font-family:'JetBrainsMono-BoldItalic', 'JetBrains Mono';font-weight:700;font-style:italic;font-size:20px;fill:rgb(171,178,191);">(OO)\________</text>
                <path d="M60.22,207.1L82.04,207.1L81.7,209.36L59.86,209.36L60.22,207.1Z" style="fill:rgb(171,178,191);"/>
                <path d="M230.1,206.6L239.36,192L242.24,192L246.88,206.6L244.38,206.6L241.24,196.6C241.133,196.293 241.047,195.987 240.98,195.68C240.913,195.373 240.853,195.107 240.8,194.88C240.733,194.6 240.68,194.333 240.64,194.08L240.5,194.08C240.367,194.333 240.227,194.6 240.08,194.88C239.947,195.107 239.793,195.373 239.62,195.68C239.447,195.987 239.26,196.293 239.06,196.6L232.78,206.6L230.1,206.6Z" style="fill:rgb(171,178,191);"/>
                <text x="48px" y="206.6px" style="font-family:'JetBrainsMono-BoldItalic', 'JetBrains Mono';font-weight:700;font-style:italic;font-size:20px;fill:rgb(171,178,191);">(<tspan x="84px " y="206.6px ">)</tspan>\        )\</text>
                <path d="M112.44,223.6L114.94,223.6L113.78,230.84L127.64,230.84L127.28,233.16L113.42,233.16L112.28,240.3L109.78,240.3L112.44,223.6ZM101.18,240.3L103.84,223.6L106.34,223.6L103.68,240.3L101.18,240.3Z" style="fill:rgb(171,178,191);"/>
                <path d="M156.42,233.14L156.8,230.84L166.2,230.84L165.82,233.14L156.42,233.14ZM145.5,230.84L154.9,230.84L154.52,233.14L145.12,233.14L145.5,230.84ZM134.2,230.84L143.6,230.84L143.22,233.14L133.82,233.14L134.2,230.84Z" style="fill:rgb(171,178,191);"/>
                <path d="M209.18,222L211.68,222L208.7,240.8L206.2,240.8L209.18,222ZM199.58,222L202.08,222L199.1,240.8L196.6,240.8L199.58,222Z" style="fill:rgb(171,178,191);"/>
                <text x="168px" y="238.6px" style="font-family:'JetBrainsMono-BoldItalic', 'JetBrains Mono';font-weight:700;font-style:italic;font-size:20px;fill:rgb(171,178,191);"><tspan x="168px " y="238.6px ">W</tspan></text>
                <path d="M113.18,254L115.68,254L112.7,272.8L110.2,272.8L113.18,254ZM103.58,254L106.08,254L103.1,272.8L100.6,272.8L103.58,254Z" style="fill:rgb(171,178,191);"/>
                <path d="M209.18,254L211.68,254L208.7,272.8L206.2,272.8L209.18,254ZM199.58,254L202.08,254L199.1,272.8L196.6,272.8L199.58,254Z" style="fill:rgb(171,178,191);"/>
            </g>
            <g transform="matrix(1.254,0,0,1.25376,524.66,598.043)">
                <path d="M19.02,6.84L46.16,6.84L45.78,9.14L18.66,9.14L19.02,6.84ZM1.2,8L6.6,2.1L9.54,2.1L5.48,6.52C5.427,6.587 5.377,6.643 5.33,6.69C5.283,6.737 5.233,6.787 5.18,6.84L11.88,6.84L11.52,9.14L4.62,9.14C4.647,9.193 4.677,9.243 4.71,9.29C4.743,9.337 4.78,9.393 4.82,9.46L7.52,13.9L4.78,13.9L1.2,8ZM13.98,9.94L14.58,3.4L15.08,0.2L17.74,0.2L17.22,3.4L15.74,9.94L13.98,9.94ZM12.6,13.4C12.667,13 12.85,12.677 13.15,12.43C13.45,12.183 13.813,12.06 14.24,12.06L14.76,12.06C15.187,12.06 15.51,12.183 15.73,12.43C15.95,12.677 16.027,13 15.96,13.4C15.893,13.8 15.71,14.117 15.41,14.35C15.11,14.583 14.74,14.7 14.3,14.7L13.8,14.7C13.373,14.7 13.05,14.58 12.83,14.34C12.61,14.1 12.533,13.787 12.6,13.4Z" style="fill:rgb(171,178,191);"/>
            </g>
            <g transform="matrix(1.254,0,0,1.25376,925.562,908.507)">
                <path d="M1.7,9.14L2.06,6.84L31.28,6.84C31.253,6.787 31.22,6.737 31.18,6.69C31.14,6.643 31.107,6.587 31.08,6.52L28.4,2.1L31.16,2.1L34.68,8L29.28,13.9L26.32,13.9L30.42,9.46C30.473,9.393 30.523,9.337 30.57,9.29C30.617,9.243 30.667,9.193 30.72,9.14L1.7,9.14Z" style="fill:rgb(171,178,191);"/>
            </g>
            <g transform="matrix(1.254,0,0,1.25376,597.415,585.036)">
                <text x="0px" y="14.6px" style="font-family:'JetBrainsMono-BoldItalic', 'JetBrains Mono';font-weight:700;font-style:italic;font-size:20px;fill:rgb(220,223,228);">_______________</text>
                <text x="0px" y="46.6px" style="font-family:'JetBrainsMono-BoldItalic', 'JetBrains Mono';font-weight:700;font-style:italic;font-size:20px;fill:rgb(220,223,228);">&lt; /R/STARTPAGES &gt;</text>
                <text x="0px" y="78.6px" style="font-family:'JetBrainsMono-BoldItalic', 'JetBrains Mono';font-weight:700;font-style:italic;font-size:20px;fill:rgb(220,223,228);">---------------</text>
                <text x="24px" y="110.6px" style="font-family:'JetBrainsMono-BoldItalic', 'JetBrains Mono';font-weight:700;font-style:italic;font-size:20px;fill:rgb(220,223,228);">\</text>
                <path d="M60.22,143.1L82.04,143.1L81.7,145.36L59.86,145.36L60.22,143.1Z" style="fill:rgb(220,223,228);"/>
                <text x="24px" y="142.6px" style="font-family:'JetBrainsMono-BoldItalic', 'JetBrains Mono';font-weight:700;font-style:italic;font-size:20px;fill:rgb(220,223,228);">\ ^<tspan x="84px " y="142.6px ">^</tspan></text>
                <text x="48px" y="174.6px" style="font-family:'JetBrainsMono-BoldItalic', 'JetBrains Mono';font-weight:700;font-style:italic;font-size:20px;fill:rgb(220,223,228);">(OO)\________</text>
                <path d="M60.22,207.1L82.04,207.1L81.7,209.36L59.86,209.36L60.22,207.1Z" style="fill:rgb(220,223,228);"/>
                <path d="M230.1,206.6L239.36,192L242.24,192L246.88,206.6L244.38,206.6L241.24,196.6C241.133,196.293 241.047,195.987 240.98,195.68C240.913,195.373 240.853,195.107 240.8,194.88C240.733,194.6 240.68,194.333 240.64,194.08L240.5,194.08C240.367,194.333 240.227,194.6 240.08,194.88C239.947,195.107 239.793,195.373 239.62,195.68C239.447,195.987 239.26,196.293 239.06,196.6L232.78,206.6L230.1,206.6Z" style="fill:rgb(220,223,228);"/>
                <text x="48px" y="206.6px" style="font-family:'JetBrainsMono-BoldItalic', 'JetBrains Mono';font-weight:700;font-style:italic;font-size:20px;fill:rgb(220,223,228);">(<tspan x="84px " y="206.6px ">)</tspan>\        )\</text>
                <path d="M112.44,223.6L114.94,223.6L113.78,230.84L127.64,230.84L127.28,233.16L113.42,233.16L112.28,240.3L109.78,240.3L112.44,223.6ZM101.18,240.3L103.84,223.6L106.34,223.6L103.68,240.3L101.18,240.3Z" style="fill:rgb(220,223,228);"/>
                <path d="M156.42,233.14L156.8,230.84L166.2,230.84L165.82,233.14L156.42,233.14ZM145.5,230.84L154.9,230.84L154.52,233.14L145.12,233.14L145.5,230.84ZM134.2,230.84L143.6,230.84L143.22,233.14L133.82,233.14L134.2,230.84Z" style="fill:rgb(220,223,228);"/>
                <path d="M209.18,222L211.68,222L208.7,240.8L206.2,240.8L209.18,222ZM199.58,222L202.08,222L199.1,240.8L196.6,240.8L199.58,222Z" style="fill:rgb(220,223,228);"/>
                <text x="168px" y="238.6px" style="font-family:'JetBrainsMono-BoldItalic', 'JetBrains Mono';font-weight:700;font-style:italic;font-size:20px;fill:rgb(220,223,228);"><tspan x="168px " y="238.6px ">W</tspan></text>
                <path d="M113.18,254L115.68,254L112.7,272.8L110.2,272.8L113.18,254ZM103.58,254L106.08,254L103.1,272.8L100.6,272.8L103.58,254Z" style="fill:rgb(220,223,228);"/>
                <path d="M209.18,254L211.68,254L208.7,272.8L206.2,272.8L209.18,254ZM199.58,254L202.08,254L199.1,272.8L196.6,272.8L199.58,254Z" style="fill:rgb(220,223,228);"/>
            </g>
            <g transform="matrix(1.254,0,0,1.25376,524.66,595.535)">
                <path d="M19.02,6.84L46.16,6.84L45.78,9.14L18.66,9.14L19.02,6.84ZM1.2,8L6.6,2.1L9.54,2.1L5.48,6.52C5.427,6.587 5.377,6.643 5.33,6.69C5.283,6.737 5.233,6.787 5.18,6.84L11.88,6.84L11.52,9.14L4.62,9.14C4.647,9.193 4.677,9.243 4.71,9.29C4.743,9.337 4.78,9.393 4.82,9.46L7.52,13.9L4.78,13.9L1.2,8ZM13.98,9.94L14.58,3.4L15.08,0.2L17.74,0.2L17.22,3.4L15.74,9.94L13.98,9.94ZM12.6,13.4C12.667,13 12.85,12.677 13.15,12.43C13.45,12.183 13.813,12.06 14.24,12.06L14.76,12.06C15.187,12.06 15.51,12.183 15.73,12.43C15.95,12.677 16.027,13 15.96,13.4C15.893,13.8 15.71,14.117 15.41,14.35C15.11,14.583 14.74,14.7 14.3,14.7L13.8,14.7C13.373,14.7 13.05,14.58 12.83,14.34C12.61,14.1 12.533,13.787 12.6,13.4Z" style="fill:rgb(220,223,228);"/>
            </g>
            <g transform="matrix(1.254,0,0,1.25376,925.562,905.999)">
                <path d="M1.7,9.14L2.06,6.84L31.28,6.84C31.253,6.787 31.22,6.737 31.18,6.69C31.14,6.643 31.107,6.587 31.08,6.52L28.4,2.1L31.16,2.1L34.68,8L29.28,13.9L26.32,13.9L30.42,9.46C30.473,9.393 30.523,9.337 30.57,9.29C30.617,9.243 30.667,9.193 30.72,9.14L1.7,9.14Z" style="fill:rgb(220,223,228);"/>
            </g>
        </g>
    </g>
</svg>
