<?xml version="1.0" encoding="UTF-8" standalone="no"?>
<!DOCTYPE svg PUBLIC "-//W3C//DTD SVG 1.1//EN" "http://www.w3.org/Graphics/SVG/1.1/DTD/svg11.dtd">
<svg width="100%" height="100%" viewBox="0 0 1000 500" version="1.1" xmlns="http://www.w3.org/2000/svg" xmlns:xlink="http://www.w3.org/1999/xlink" xml:space="preserve" xmlns:serif="http://www.serif.com/" style="fill-rule:evenodd;clip-rule:evenodd;stroke-linejoin:round;stroke-miterlimit:2;">
    <g transform="matrix(1,0,0,1,500,250)">
        <g id="webdev.svg" transform="matrix(1,0,0,1,-250,-250)">
            <clipPath id="_clip1">
                <rect x="0" y="0" width="500" height="500"/>
            </clipPath>
            <g clip-path="url(#_clip1)">
                <g id="ArtBoard1" transform="matrix(9.91579,0,0,10.9429,109.211,111.731)">
                    <rect x="-11.014" y="-10.21" width="50.425" height="45.692" style="fill:none;"/>
                    <g transform="matrix(1.392,0,0,1.26135,-5.0192,-2.5221)">
                        <path d="M24,17.3L15.1,17.3C15,17.3 14.8,17.3 14.7,17.4L8,22.7C7.9,22.8 7.9,22.9 8,23C8,23.1 8.1,23.1 8.2,23.1L24.1,23.1C25.7,23.1 27.1,21.7 27,20C26.9,18.4 25.5,17.3 24,17.3" style="fill:rgb(0,201,219);"/>
                    </g>
                    <g transform="matrix(1.392,0,0,1.26135,-4.12971,-1.61772)">
                        <path d="M16.1,11C16,10.2 15.6,9.4 15,8.9L4.7,0.7C3.4,-0.3 1.6,-0.1 0.6,1.2C-0.4,2.5 -0.2,4.3 1.1,5.3L8.6,11.3L1.1,17.3C-0.2,18.3 -0.4,20.1 0.6,21.4C1.6,22.7 3.4,22.9 4.7,21.9L15,13.5C15.7,12.9 16.1,12.1 16.1,11.2L16.1,11" style="fill:rgb(13,85,255);"/>
                    </g>
                    <g transform="matrix(1.392,0,0,1.26135,-5.0192,-2.5221)">
                        <path d="M27,20.2C27,21.8 25.7,23.1 24.1,23.1C22.5,23.1 21.2,21.8 21.2,20.2C21.2,18.6 22.5,17.3 24.1,17.3C25.7,17.3 27,18.6 27,20.2" style="fill:rgb(112,0,242);"/>
                    </g>
                </g>
            </g>
        </g>
        <g id="webdev.svg1" serif:id="webdev.svg">
        </g>
    </g>
</svg>
