<?xml version="1.0" encoding="UTF-8" standalone="no"?>
<!DOCTYPE svg PUBLIC "-//W3C//DTD SVG 1.1//EN" "http://www.w3.org/Graphics/SVG/1.1/DTD/svg11.dtd">
<svg width="100%" height="100%" viewBox="0 0 399 399" version="1.1" xmlns="http://www.w3.org/2000/svg" xmlns:xlink="http://www.w3.org/1999/xlink" xml:space="preserve" xmlns:serif="http://www.serif.com/" style="fill-rule:evenodd;clip-rule:evenodd;stroke-linecap:round;stroke-linejoin:round;stroke-miterlimit:1.5;">
    <g transform="matrix(1,0,0,1,-1054.53,-1187.26)">
        <g id="ArtBoard2" transform="matrix(0.797445,0,0,0.797599,655.804,772.441)">
            <rect x="500" y="520.084" width="500" height="499.903" style="fill:none;"/>
            <g transform="matrix(-0.373673,-0.373601,0.355995,-0.355926,257.471,1453.13)">
                <path d="M246.778,1189.04L246.778,1189.04C320.269,1257.27 316.748,1328.88 316.76,1352.88C261.786,1353.02 238.877,1353.02 176.797,1352.88C176.809,1328.88 173.288,1257.27 246.778,1189.04L246.778,1189.04Z" style="fill:none;stroke:rgb(171,178,191);stroke-width:54.99px;"/>
            </g>
            <g transform="matrix(0.886715,0.886544,-0.886715,0.886544,1822.77,-573.682)">
                <path d="M111.673,1489.2L115.802,1497.55L197.121,1497.55L217.09,1457.14C217.09,1457.14 261.988,1457.14 261.988,1457.14L261.988,1396.46L222.655,1357.79C222.664,1343.04 222.692,1328.83 222.753,1317.52L222.753,1317.48C222.744,1298.15 224.841,1243.99 180.916,1189L180.479,1188.46C180.456,1188.43 179.616,1187.39 179.616,1187.39C179.582,1187.35 178.552,1186.1 178.552,1186.1C178.509,1186.05 177.187,1184.47 177.187,1184.47C177.146,1184.42 176.273,1183.39 176.273,1183.39C176.245,1183.36 175.551,1182.56 175.551,1182.56C175.514,1182.51 174.166,1180.97 174.166,1180.97C174.117,1180.92 172.746,1179.38 172.746,1179.38C172.701,1179.33 171.513,1178.02 171.513,1178.02C171.467,1177.97 170.037,1176.43 170.037,1176.43C169.987,1176.37 168.54,1174.84 168.54,1174.84C168.493,1174.79 156.506,1162.31 156.506,1162.31L145.687,1173.48L145.436,1173.74C145.416,1173.76 144.161,1175.07 144.161,1175.07C144.114,1175.12 142.668,1176.66 142.668,1176.66C142.618,1176.71 141.2,1178.25 141.2,1178.25C141.154,1178.3 139.962,1179.62 139.962,1179.62C139.917,1179.67 138.545,1181.21 138.545,1181.21C138.497,1181.27 137.149,1182.81 137.149,1182.81C137.101,1182.87 135.783,1184.41 135.783,1184.41C135.744,1184.46 134.875,1185.49 134.875,1185.49C134.847,1185.53 134.179,1186.33 134.179,1186.33C134.144,1186.37 132.882,1187.91 132.882,1187.91C132.843,1187.96 132.022,1188.98 132.022,1188.98C88.081,1243.99 90.178,1298.15 90.17,1317.43L90.17,1317.48C90.231,1328.83 90.259,1343.04 90.268,1357.79C90.268,1357.79 50.935,1396.46 50.935,1396.46L50.935,1457.14L95.833,1457.14C95.833,1457.14 111.673,1489.2 111.673,1489.2ZM125.121,1482.55L105.152,1442.14L65.935,1442.14L65.935,1402.75L105.27,1364.07C105.266,1347.09 105.239,1330.37 105.17,1317.44C105.178,1299.58 103.024,1249.32 143.727,1198.37L144.532,1197.36L145.754,1195.87L146.386,1195.11L147.227,1194.11L148.504,1192.62L149.803,1191.12L151.126,1189.64L152.272,1188.37L153.643,1186.88L155.04,1185.4L156.248,1184.14C156.321,1184.06 156.391,1183.99 156.461,1183.92L157.676,1185.18L159.076,1186.67L160.456,1188.16L161.598,1189.42L162.923,1190.9L164.222,1192.39L164.88,1193.15L165.725,1194.14L167.007,1195.67L167.993,1196.87L168.798,1197.87L169.196,1198.37C209.898,1249.32 207.745,1299.58 207.753,1317.44C207.683,1330.37 207.656,1347.09 207.653,1364.07L246.988,1402.75L246.988,1442.14L207.77,1442.14L187.802,1482.55L125.121,1482.55Z" style="fill:rgb(171,178,191);"/>
            </g>
            <g transform="matrix(-0.373673,-0.373601,0.355995,-0.355926,257.471,1446.86)">
                <path d="M246.778,1189.04L246.778,1189.04C320.269,1257.27 316.748,1328.88 316.76,1352.88C261.786,1353.02 238.877,1353.02 176.797,1352.88C176.809,1328.88 173.288,1257.27 246.778,1189.04L246.778,1189.04Z" style="fill:none;stroke:rgb(142,149,163);stroke-width:54.99px;"/>
            </g>
            <g transform="matrix(0.738937,0.738795,-0.749135,0.74899,1605.05,-450.44)">
                <path d="M247.425,1323.24L356.056,1428.59L356.056,1475.22L138.794,1475.22L138.794,1428.59L247.425,1323.24Z" style="fill:rgb(190,195,204);"/>
            </g>
            <g transform="matrix(0.886715,0.886544,-0.886715,0.886544,1583.66,-826.736)">
                <path d="M461.164,1488.23L481.786,1446.49L379.168,1446.49L399.79,1488.23L461.164,1488.23Z" style="fill:rgb(190,195,204);"/>
            </g>
            <g transform="matrix(0.649901,0.649776,-0.722614,0.722474,1610.54,-411.044)">
                <path d="M246.778,1189.04L246.778,1189.04C320.269,1257.27 316.748,1328.88 316.76,1352.88C316.451,1404.62 316.76,1505.9 316.76,1505.9L176.797,1505.9C176.797,1505.9 177.106,1404.62 176.797,1352.88C176.809,1328.88 173.288,1257.27 246.778,1189.04L246.778,1189.04Z" style="fill:rgb(220,223,228);"/>
            </g>
            <g transform="matrix(0.332083,0.332019,-0.332083,0.332019,753.089,-192.769)">
                <circle cx="1445.28" cy="1298.37" r="61.527" style="fill:rgb(220,223,228);stroke:rgb(190,195,204);stroke-width:21.03px;stroke-linecap:butt;stroke-linejoin:miter;"/>
            </g>
            <g transform="matrix(0.886715,0.886544,-0.886715,0.886544,1822.77,-579.951)">
                <path d="M116.191,1246.43C123.591,1226.72 135.923,1205.12 156.461,1183.92L156.461,1183.92L156.461,1183.92C177,1205.12 189.331,1226.72 196.731,1246.43L116.191,1246.43Z" style="fill:rgb(190,195,204);"/>
            </g>
            <g transform="matrix(0.980054,0.979864,-0.912171,0.911995,1614.24,-855.481)">
                <path d="M392.868,1370.01C392.868,1367.44 390.931,1365.36 388.545,1365.36C386.159,1365.36 384.222,1367.44 384.222,1370.01L384.222,1432.04C384.222,1434.61 386.159,1436.69 388.545,1436.69C390.931,1436.69 392.868,1434.61 392.868,1432.04L392.868,1370.01Z" style="fill:rgb(190,195,204);"/>
            </g>
            <g transform="matrix(0.886715,0.886544,-0.886715,0.886544,1822.77,-579.951)">
                <path d="M111.673,1489.2L115.802,1497.55L197.121,1497.55L217.09,1457.14C217.09,1457.14 261.988,1457.14 261.988,1457.14L261.988,1396.46L222.655,1357.79C222.664,1343.04 222.692,1328.83 222.753,1317.52L222.753,1317.48C222.744,1298.15 224.841,1243.99 180.916,1189L180.479,1188.46C180.456,1188.43 179.616,1187.39 179.616,1187.39C179.582,1187.35 178.552,1186.1 178.552,1186.1C178.509,1186.05 177.187,1184.47 177.187,1184.47C177.146,1184.42 176.273,1183.39 176.273,1183.39C176.245,1183.36 175.551,1182.56 175.551,1182.56C175.514,1182.51 174.166,1180.97 174.166,1180.97C174.117,1180.92 172.746,1179.38 172.746,1179.38C172.701,1179.33 171.513,1178.02 171.513,1178.02C171.467,1177.97 170.037,1176.43 170.037,1176.43C169.987,1176.37 168.54,1174.84 168.54,1174.84C168.493,1174.79 156.506,1162.31 156.506,1162.31L145.687,1173.48L145.436,1173.74C145.416,1173.76 144.161,1175.07 144.161,1175.07C144.114,1175.12 142.668,1176.66 142.668,1176.66C142.618,1176.71 141.2,1178.25 141.2,1178.25C141.154,1178.3 139.962,1179.62 139.962,1179.62C139.917,1179.67 138.545,1181.21 138.545,1181.21C138.497,1181.27 137.149,1182.81 137.149,1182.81C137.101,1182.87 135.783,1184.41 135.783,1184.41C135.744,1184.46 134.875,1185.49 134.875,1185.49C134.847,1185.53 134.179,1186.33 134.179,1186.33C134.144,1186.37 132.882,1187.91 132.882,1187.91C132.843,1187.96 132.022,1188.98 132.022,1188.98C88.081,1243.99 90.178,1298.15 90.17,1317.43L90.17,1317.48C90.231,1328.83 90.259,1343.04 90.268,1357.79C90.268,1357.79 50.935,1396.46 50.935,1396.46L50.935,1457.14L95.833,1457.14C95.833,1457.14 111.673,1489.2 111.673,1489.2ZM125.121,1482.55L105.152,1442.14L65.935,1442.14L65.935,1402.75L105.27,1364.07C105.266,1347.09 105.239,1330.37 105.17,1317.44C105.178,1299.58 103.024,1249.32 143.727,1198.37L144.532,1197.36L145.754,1195.87L146.386,1195.11L147.227,1194.11L148.504,1192.62L149.803,1191.12L151.126,1189.64L152.272,1188.37L153.643,1186.88L155.04,1185.4L156.248,1184.14C156.321,1184.06 156.391,1183.99 156.461,1183.92L157.676,1185.18L159.076,1186.67L160.456,1188.16L161.598,1189.42L162.923,1190.9L164.222,1192.39L164.88,1193.15L165.725,1194.14L167.007,1195.67L167.993,1196.87L168.798,1197.87L169.196,1198.37C209.898,1249.32 207.745,1299.58 207.753,1317.44C207.683,1330.37 207.656,1347.09 207.653,1364.07L246.988,1402.75L246.988,1442.14L207.77,1442.14L187.802,1482.55L125.121,1482.55Z" style="fill:rgb(142,149,163);"/>
            </g>
            <g transform="matrix(-0.373673,-0.373601,0.355995,-0.355926,257.471,1446.86)">
                <path d="M246.778,1189.04L246.778,1189.04C320.269,1257.27 316.748,1328.88 316.76,1352.88C261.786,1353.02 238.877,1353.02 176.797,1352.88C176.809,1328.88 173.288,1257.27 246.778,1189.04L246.778,1189.04Z" style="fill:rgb(190,195,204);"/>
            </g>
            <g transform="matrix(-0.211257,-0.211216,0.253563,-0.253514,355.979,1268.23)">
                <path d="M246.778,1189.04L246.778,1189.04C320.269,1257.27 316.748,1328.88 316.76,1352.88C261.786,1353.02 238.877,1353.02 176.797,1352.88C176.809,1328.88 173.288,1257.27 246.778,1189.04L246.778,1189.04Z" style="fill:rgb(220,223,228);"/>
            </g>
        </g>
    </g>
</svg>
