<svg width="356" height="200" viewBox="0 0 356 200" fill="none" xmlns="http://www.w3.org/2000/svg">
<g id="Computer">
<rect id="Rectangle 1" width="355.789" height="200" rx="5" fill="#DCDFE4"/>
<g id="ImgWithText">
<g id="TextLine">
<rect id="Rectangle 15" x="112" y="154" width="11" height="3" rx="1" fill="#282C34" fill-opacity="0.5"/>
<rect id="Rectangle 14" x="112" y="154" width="11" height="2" rx="1" fill="#282C34"/>
</g>
<g id="TextLine_2">
<rect id="Rectangle 15_2" x="83" y="160" width="4" height="3" rx="1" fill="#282C34" fill-opacity="0.5"/>
<rect id="Rectangle 14_2" x="83" y="160" width="4" height="2" rx="1" fill="#282C34"/>
</g>
<g id="TextLine_3">
<rect id="Rectangle 15_3" x="83" y="166" width="10" height="3" rx="1" fill="#282C34" fill-opacity="0.5"/>
<rect id="Rectangle 14_3" x="83" y="166" width="10" height="2" rx="1" fill="#282C34"/>
</g>
<g id="Image">
<rect id="Rectangle 13" x="83" y="146" width="40" height="3" rx="1" fill="#282C34" fill-opacity="0.5"/>
<g id="Group 1">
<mask id="mask0" mask-type="alpha" maskUnits="userSpaceOnUse" x="83" y="118" width="40" height="30">
<rect id="Rectangle 12" x="83" y="118" width="40" height="30" rx="1" fill="#555555"/>
</mask>
<g mask="url(#mask0)">
<rect id="Rectangle 10" x="67.2132" y="153.929" width="33.8406" height="33.8406" rx="1" transform="rotate(-45 67.2132 153.929)" fill="#282C34"/>
<rect id="Rectangle 11" x="87" y="149.929" width="33.8406" height="33.8406" rx="1" transform="rotate(-45 87 149.929)" fill="#282C34"/>
<rect id="Rectangle 9" x="83.5" y="118.5" width="39" height="29" rx="0.5" stroke="#282C34"/>
</g>
</g>
</g>
<g id="TextLine_4">
<rect id="Rectangle 15_4" x="83" y="154" width="9" height="3" rx="1" fill="#282C34" fill-opacity="0.5"/>
<rect id="Rectangle 14_4" x="83" y="154" width="9" height="2" rx="1" fill="#282C34"/>
</g>
<g id="TextLine_5">
<rect id="Rectangle 15_5" x="94" y="154" width="16" height="3" rx="1" fill="#282C34" fill-opacity="0.5"/>
<rect id="Rectangle 14_5" x="94" y="154" width="16" height="2" rx="1" fill="#282C34"/>
</g>
<g id="TextLine_6">
<rect id="Rectangle 15_6" x="89" y="160" width="17" height="3" rx="1" fill="#282C34" fill-opacity="0.5"/>
<rect id="Rectangle 14_6" x="89" y="160" width="17" height="2" rx="1" fill="#282C34"/>
</g>
<g id="TextLine_7">
<rect id="Rectangle 15_7" x="108" y="160" width="4" height="3" rx="1" fill="#282C34" fill-opacity="0.5"/>
<rect id="Rectangle 14_7" x="108" y="160" width="4" height="2" rx="1" fill="#282C34"/>
</g>
<g id="TextLine_8">
<rect id="Rectangle 15_8" x="114" y="160" width="9" height="3" rx="1" fill="#282C34" fill-opacity="0.5"/>
<rect id="Rectangle 14_8" x="114" y="160" width="9" height="2" rx="1" fill="#282C34"/>
</g>
<g id="TextLine_9">
<rect id="Rectangle 15_9" x="95" y="166" width="15" height="3" rx="1" fill="#282C34" fill-opacity="0.5"/>
<rect id="Rectangle 14_9" x="95" y="166" width="15" height="2" rx="1" fill="#282C34"/>
</g>
</g>
<g id="ImgWithText_2">
<g id="TextLine_10">
<rect id="Rectangle 15_10" x="162" y="154" width="11" height="3" rx="1" fill="#282C34" fill-opacity="0.5"/>
<rect id="Rectangle 14_10" x="162" y="154" width="11" height="2" rx="1" fill="#282C34"/>
</g>
<g id="TextLine_11">
<rect id="Rectangle 15_11" x="133" y="160" width="4" height="3" rx="1" fill="#282C34" fill-opacity="0.5"/>
<rect id="Rectangle 14_11" x="133" y="160" width="4" height="2" rx="1" fill="#282C34"/>
</g>
<g id="TextLine_12">
<rect id="Rectangle 15_12" x="133" y="166" width="10" height="3" rx="1" fill="#282C34" fill-opacity="0.5"/>
<rect id="Rectangle 14_12" x="133" y="166" width="10" height="2" rx="1" fill="#282C34"/>
</g>
<g id="Image_2">
<rect id="Rectangle 13_2" x="133" y="146" width="40" height="3" rx="1" fill="#282C34" fill-opacity="0.5"/>
<g id="Group 1_2">
<mask id="mask1" mask-type="alpha" maskUnits="userSpaceOnUse" x="133" y="118" width="40" height="30">
<rect id="Rectangle 12_2" x="133" y="118" width="40" height="30" rx="1" fill="#555555"/>
</mask>
<g mask="url(#mask1)">
<rect id="Rectangle 10_2" x="117.213" y="153.929" width="33.8406" height="33.8406" rx="1" transform="rotate(-45 117.213 153.929)" fill="#282C34"/>
<rect id="Rectangle 11_2" x="137" y="149.929" width="33.8406" height="33.8406" rx="1" transform="rotate(-45 137 149.929)" fill="#282C34"/>
<rect id="Rectangle 9_2" x="133.5" y="118.5" width="39" height="29" rx="0.5" stroke="#282C34"/>
</g>
</g>
</g>
<g id="TextLine_13">
<rect id="Rectangle 15_13" x="133" y="154" width="9" height="3" rx="1" fill="#282C34" fill-opacity="0.5"/>
<rect id="Rectangle 14_13" x="133" y="154" width="9" height="2" rx="1" fill="#282C34"/>
</g>
<g id="TextLine_14">
<rect id="Rectangle 15_14" x="144" y="154" width="16" height="3" rx="1" fill="#282C34" fill-opacity="0.5"/>
<rect id="Rectangle 14_14" x="144" y="154" width="16" height="2" rx="1" fill="#282C34"/>
</g>
<g id="TextLine_15">
<rect id="Rectangle 15_15" x="139" y="160" width="17" height="3" rx="1" fill="#282C34" fill-opacity="0.5"/>
<rect id="Rectangle 14_15" x="139" y="160" width="17" height="2" rx="1" fill="#282C34"/>
</g>
<g id="TextLine_16">
<rect id="Rectangle 15_16" x="158" y="160" width="4" height="3" rx="1" fill="#282C34" fill-opacity="0.5"/>
<rect id="Rectangle 14_16" x="158" y="160" width="4" height="2" rx="1" fill="#282C34"/>
</g>
<g id="TextLine_17">
<rect id="Rectangle 15_17" x="164" y="160" width="9" height="3" rx="1" fill="#282C34" fill-opacity="0.5"/>
<rect id="Rectangle 14_17" x="164" y="160" width="9" height="2" rx="1" fill="#282C34"/>
</g>
<g id="TextLine_18">
<rect id="Rectangle 15_18" x="145" y="166" width="15" height="3" rx="1" fill="#282C34" fill-opacity="0.5"/>
<rect id="Rectangle 14_18" x="145" y="166" width="15" height="2" rx="1" fill="#282C34"/>
</g>
</g>
<g id="ImgWithText_3">
<g id="TextLine_19">
<rect id="Rectangle 15_19" x="212" y="154" width="11" height="3" rx="1" fill="#282C34" fill-opacity="0.5"/>
<rect id="Rectangle 14_19" x="212" y="154" width="11" height="2" rx="1" fill="#282C34"/>
</g>
<g id="TextLine_20">
<rect id="Rectangle 15_20" x="183" y="160" width="4" height="3" rx="1" fill="#282C34" fill-opacity="0.5"/>
<rect id="Rectangle 14_20" x="183" y="160" width="4" height="2" rx="1" fill="#282C34"/>
</g>
<g id="TextLine_21">
<rect id="Rectangle 15_21" x="183" y="166" width="10" height="3" rx="1" fill="#282C34" fill-opacity="0.5"/>
<rect id="Rectangle 14_21" x="183" y="166" width="10" height="2" rx="1" fill="#282C34"/>
</g>
<g id="Image_3">
<rect id="Rectangle 13_3" x="183" y="146" width="40" height="3" rx="1" fill="#282C34" fill-opacity="0.5"/>
<g id="Group 1_3">
<mask id="mask2" mask-type="alpha" maskUnits="userSpaceOnUse" x="183" y="118" width="40" height="30">
<rect id="Rectangle 12_3" x="183" y="118" width="40" height="30" rx="1" fill="#555555"/>
</mask>
<g mask="url(#mask2)">
<rect id="Rectangle 10_3" x="167.213" y="153.929" width="33.8406" height="33.8406" rx="1" transform="rotate(-45 167.213 153.929)" fill="#282C34"/>
<rect id="Rectangle 11_3" x="187" y="149.929" width="33.8406" height="33.8406" rx="1" transform="rotate(-45 187 149.929)" fill="#282C34"/>
<rect id="Rectangle 9_3" x="183.5" y="118.5" width="39" height="29" rx="0.5" stroke="#282C34"/>
</g>
</g>
</g>
<g id="TextLine_22">
<rect id="Rectangle 15_22" x="183" y="154" width="9" height="3" rx="1" fill="#282C34" fill-opacity="0.5"/>
<rect id="Rectangle 14_22" x="183" y="154" width="9" height="2" rx="1" fill="#282C34"/>
</g>
<g id="TextLine_23">
<rect id="Rectangle 15_23" x="194" y="154" width="16" height="3" rx="1" fill="#282C34" fill-opacity="0.5"/>
<rect id="Rectangle 14_23" x="194" y="154" width="16" height="2" rx="1" fill="#282C34"/>
</g>
<g id="TextLine_24">
<rect id="Rectangle 15_24" x="189" y="160" width="17" height="3" rx="1" fill="#282C34" fill-opacity="0.5"/>
<rect id="Rectangle 14_24" x="189" y="160" width="17" height="2" rx="1" fill="#282C34"/>
</g>
<g id="TextLine_25">
<rect id="Rectangle 15_25" x="208" y="160" width="4" height="3" rx="1" fill="#282C34" fill-opacity="0.5"/>
<rect id="Rectangle 14_25" x="208" y="160" width="4" height="2" rx="1" fill="#282C34"/>
</g>
<g id="TextLine_26">
<rect id="Rectangle 15_26" x="214" y="160" width="9" height="3" rx="1" fill="#282C34" fill-opacity="0.5"/>
<rect id="Rectangle 14_26" x="214" y="160" width="9" height="2" rx="1" fill="#282C34"/>
</g>
<g id="TextLine_27">
<rect id="Rectangle 15_27" x="195" y="166" width="15" height="3" rx="1" fill="#282C34" fill-opacity="0.5"/>
<rect id="Rectangle 14_27" x="195" y="166" width="15" height="2" rx="1" fill="#282C34"/>
</g>
</g>
<g id="ImgWithText_4">
<g id="TextLine_28">
<rect id="Rectangle 15_28" x="262" y="154" width="11" height="3" rx="1" fill="#282C34" fill-opacity="0.5"/>
<rect id="Rectangle 14_28" x="262" y="154" width="11" height="2" rx="1" fill="#282C34"/>
</g>
<g id="TextLine_29">
<rect id="Rectangle 15_29" x="233" y="160" width="4" height="3" rx="1" fill="#282C34" fill-opacity="0.5"/>
<rect id="Rectangle 14_29" x="233" y="160" width="4" height="2" rx="1" fill="#282C34"/>
</g>
<g id="TextLine_30">
<rect id="Rectangle 15_30" x="233" y="166" width="10" height="3" rx="1" fill="#282C34" fill-opacity="0.5"/>
<rect id="Rectangle 14_30" x="233" y="166" width="10" height="2" rx="1" fill="#282C34"/>
</g>
<g id="Image_4">
<rect id="Rectangle 13_4" x="233" y="146" width="40" height="3" rx="1" fill="#282C34" fill-opacity="0.5"/>
<g id="Group 1_4">
<mask id="mask3" mask-type="alpha" maskUnits="userSpaceOnUse" x="233" y="118" width="40" height="30">
<rect id="Rectangle 12_4" x="233" y="118" width="40" height="30" rx="1" fill="#555555"/>
</mask>
<g mask="url(#mask3)">
<rect id="Rectangle 10_4" x="217.213" y="153.929" width="33.8406" height="33.8406" rx="1" transform="rotate(-45 217.213 153.929)" fill="#282C34"/>
<rect id="Rectangle 11_4" x="237" y="149.929" width="33.8406" height="33.8406" rx="1" transform="rotate(-45 237 149.929)" fill="#282C34"/>
<rect id="Rectangle 9_4" x="233.5" y="118.5" width="39" height="29" rx="0.5" stroke="#282C34"/>
</g>
</g>
</g>
<g id="TextLine_31">
<rect id="Rectangle 15_31" x="233" y="154" width="9" height="3" rx="1" fill="#282C34" fill-opacity="0.5"/>
<rect id="Rectangle 14_31" x="233" y="154" width="9" height="2" rx="1" fill="#282C34"/>
</g>
<g id="TextLine_32">
<rect id="Rectangle 15_32" x="244" y="154" width="16" height="3" rx="1" fill="#282C34" fill-opacity="0.5"/>
<rect id="Rectangle 14_32" x="244" y="154" width="16" height="2" rx="1" fill="#282C34"/>
</g>
<g id="TextLine_33">
<rect id="Rectangle 15_33" x="239" y="160" width="17" height="3" rx="1" fill="#282C34" fill-opacity="0.5"/>
<rect id="Rectangle 14_33" x="239" y="160" width="17" height="2" rx="1" fill="#282C34"/>
</g>
<g id="TextLine_34">
<rect id="Rectangle 15_34" x="258" y="160" width="4" height="3" rx="1" fill="#282C34" fill-opacity="0.5"/>
<rect id="Rectangle 14_34" x="258" y="160" width="4" height="2" rx="1" fill="#282C34"/>
</g>
<g id="TextLine_35">
<rect id="Rectangle 15_35" x="264" y="160" width="9" height="3" rx="1" fill="#282C34" fill-opacity="0.5"/>
<rect id="Rectangle 14_35" x="264" y="160" width="9" height="2" rx="1" fill="#282C34"/>
</g>
<g id="TextLine_36">
<rect id="Rectangle 15_36" x="245" y="166" width="15" height="3" rx="1" fill="#282C34" fill-opacity="0.5"/>
<rect id="Rectangle 14_36" x="245" y="166" width="15" height="2" rx="1" fill="#282C34"/>
</g>
</g>
<g id="TextLine_37">
<rect id="Rectangle 15_37" x="183" y="48" width="22" height="3" rx="1" fill="#282C34" fill-opacity="0.5"/>
<rect id="Rectangle 14_37" x="183" y="48" width="22" height="2" rx="1" fill="#282C34"/>
</g>
<g id="TextLine_38">
<rect id="Rectangle 15_38" x="207" y="48" width="14" height="3" rx="1" fill="#282C34" fill-opacity="0.5"/>
<rect id="Rectangle 14_38" x="207" y="48" width="14" height="2" rx="1" fill="#282C34"/>
</g>
<g id="TextLine_39">
<rect id="Rectangle 15_39" x="223" y="48" width="5" height="3" rx="1" fill="#282C34" fill-opacity="0.5"/>
<rect id="Rectangle 14_39" x="223" y="48" width="5" height="2" rx="1" fill="#282C34"/>
</g>
<g id="TextLine_40">
<rect id="Rectangle 15_40" x="230" y="48" width="17" height="3" rx="1" fill="#282C34" fill-opacity="0.5"/>
<rect id="Rectangle 14_40" x="230" y="48" width="17" height="2" rx="1" fill="#282C34"/>
</g>
<g id="TextLine_41">
<rect id="Rectangle 15_41" x="249" y="48" width="20" height="3" rx="1" fill="#282C34" fill-opacity="0.5"/>
<rect id="Rectangle 14_41" x="249" y="48" width="20" height="2" rx="1" fill="#282C34"/>
</g>
<g id="TextLine_42">
<rect id="Rectangle 15_42" x="183" y="42" width="25" height="3" rx="1" fill="#282C34" fill-opacity="0.5"/>
<rect id="Rectangle 14_42" x="183" y="42" width="25" height="2" rx="1" fill="#282C34"/>
</g>
<g id="TextLine_43">
<rect id="Rectangle 15_43" x="210" y="42" width="6" height="3" rx="1" fill="#282C34" fill-opacity="0.5"/>
<rect id="Rectangle 14_43" x="210" y="42" width="6" height="2" rx="1" fill="#282C34"/>
</g>
<g id="TextLine_44">
<rect id="Rectangle 15_44" x="218" y="42" width="11" height="3" rx="1" fill="#282C34" fill-opacity="0.5"/>
<rect id="Rectangle 14_44" x="218" y="42" width="11" height="2" rx="1" fill="#282C34"/>
</g>
<g id="TextLine_45">
<rect id="Rectangle 15_45" x="231" y="42" width="30" height="3" rx="1" fill="#282C34" fill-opacity="0.5"/>
<rect id="Rectangle 14_45" x="231" y="42" width="30" height="2" rx="1" fill="#282C34"/>
</g>
<g id="TextLine_46">
<rect id="Rectangle 15_46" x="183" y="36" width="18" height="3" rx="1" fill="#282C34" fill-opacity="0.5"/>
<rect id="Rectangle 14_46" x="183" y="36" width="18" height="2" rx="1" fill="#282C34"/>
</g>
<g id="TextLine_47">
<rect id="Rectangle 15_47" x="203" y="36" width="9" height="3" rx="1" fill="#282C34" fill-opacity="0.5"/>
<rect id="Rectangle 14_47" x="203" y="36" width="9" height="2" rx="1" fill="#282C34"/>
</g>
<g id="TextLine_48">
<rect id="Rectangle 15_48" x="214" y="36" width="24" height="3" rx="1" fill="#282C34" fill-opacity="0.5"/>
<rect id="Rectangle 14_48" x="214" y="36" width="24" height="2" rx="1" fill="#282C34"/>
</g>
<g id="TextLine_49">
<rect id="Rectangle 15_49" x="240" y="36" width="33" height="3" rx="1" fill="#282C34" fill-opacity="0.5"/>
<rect id="Rectangle 14_49" x="240" y="36" width="33" height="2" rx="1" fill="#282C34"/>
</g>
<g id="TextLine_50">
<rect id="Rectangle 15_50" x="183" y="54" width="6" height="3" rx="1" fill="#282C34" fill-opacity="0.5"/>
<rect id="Rectangle 14_50" x="183" y="54" width="6" height="2" rx="1" fill="#282C34"/>
</g>
<g id="TextLine_51">
<rect id="Rectangle 15_51" x="191" y="54" width="15" height="3" rx="1" fill="#282C34" fill-opacity="0.5"/>
<rect id="Rectangle 14_51" x="191" y="54" width="15" height="2" rx="1" fill="#282C34"/>
</g>
<g id="TextLine_52">
<rect id="Rectangle 15_52" x="208" y="54" width="29" height="3" rx="1" fill="#282C34" fill-opacity="0.5"/>
<rect id="Rectangle 14_52" x="208" y="54" width="29" height="2" rx="1" fill="#282C34"/>
</g>
<g id="TextLine_53">
<rect id="Rectangle 15_53" x="239" y="54" width="25" height="3" rx="1" fill="#282C34" fill-opacity="0.5"/>
<rect id="Rectangle 14_53" x="239" y="54" width="25" height="2" rx="1" fill="#282C34"/>
</g>
<g id="TextLine_54">
<rect id="Rectangle 15_54" x="183" y="60" width="20" height="3" rx="1" fill="#282C34" fill-opacity="0.5"/>
<rect id="Rectangle 14_54" x="183" y="60" width="20" height="2" rx="1" fill="#282C34"/>
</g>
<g id="TextLine_55">
<rect id="Rectangle 15_55" x="205" y="60" width="23" height="3" rx="1" fill="#282C34" fill-opacity="0.5"/>
<rect id="Rectangle 14_55" x="205" y="60" width="23" height="2" rx="1" fill="#282C34"/>
</g>
<g id="TextLine_56">
<rect id="Rectangle 15_56" x="230" y="60" width="16" height="3" rx="1" fill="#282C34" fill-opacity="0.5"/>
<rect id="Rectangle 14_56" x="230" y="60" width="16" height="2" rx="1" fill="#282C34"/>
</g>
<g id="TextLine_57">
<rect id="Rectangle 15_57" x="248" y="60" width="25" height="3" rx="1" fill="#282C34" fill-opacity="0.5"/>
<rect id="Rectangle 14_57" x="248" y="60" width="25" height="2" rx="1" fill="#282C34"/>
</g>
<g id="TextLine_58">
<rect id="Rectangle 15_58" x="183" y="66" width="4" height="3" rx="1" fill="#282C34" fill-opacity="0.5"/>
<rect id="Rectangle 14_58" x="183" y="66" width="4" height="2" rx="1" fill="#282C34"/>
</g>
<g id="TextLine_59">
<rect id="Rectangle 15_59" x="189" y="66" width="10" height="3" rx="1" fill="#282C34" fill-opacity="0.5"/>
<rect id="Rectangle 14_59" x="189" y="66" width="10" height="2" rx="1" fill="#282C34"/>
</g>
<g id="Image_5">
<g id="Group 1_5">
<mask id="mask4" mask-type="alpha" maskUnits="userSpaceOnUse" x="83" y="26" width="90" height="68">
<rect id="Rectangle 12_5" x="83" y="26" width="90" height="67.9702" rx="1" fill="#555555"/>
</mask>
<g mask="url(#mask4)">
<rect id="Rectangle 10_5" width="76.407" height="76.407" rx="1" transform="matrix(0.704649 -0.709556 0.704649 0.709556 47.4797 107.403)" fill="#282C34"/>
<rect id="Rectangle 11_5" width="76.407" height="76.407" rx="1" transform="matrix(0.704648 -0.709557 0.704648 0.709557 92 98.3405)" fill="#282C34"/>
<rect id="Rectangle 9_5" x="83.5" y="26.5" width="89" height="66.9702" rx="0.5" stroke="#282C34"/>
</g>
</g>
<rect id="Rectangle 13_5" x="83" y="91.9403" width="90" height="3.08955" rx="1" fill="#282C34" fill-opacity="0.5"/>
</g>
<g id="Button">
<rect id="Rectangle 17" x="183" y="79" width="30" height="8" rx="2" fill="#282C34" fill-opacity="0.5"/>
<rect id="Rectangle 16" x="183" y="79" width="30" height="7" rx="2" fill="#282C34"/>
</g>
<g id="HeadLine">
<rect id="Rectangle 15_60" x="183" y="26" width="15" height="7" rx="3" fill="#282C34" fill-opacity="0.5"/>
<rect id="Rectangle 14_60" x="183" y="26" width="15" height="6" rx="3" fill="#282C34"/>
</g>
<g id="HeadLine_2">
<rect id="Rectangle 15_61" x="200" y="26" width="28" height="7" rx="3" fill="#282C34" fill-opacity="0.5"/>
<rect id="Rectangle 14_61" x="200" y="26" width="28" height="6" rx="3" fill="#282C34"/>
</g>
</g>
</svg>
