<?xml version="1.0" encoding="UTF-8" standalone="no"?>
<!DOCTYPE svg PUBLIC "-//W3C//DTD SVG 1.1//EN" "http://www.w3.org/Graphics/SVG/1.1/DTD/svg11.dtd">
<svg width="100%" height="100%" viewBox="0 0 500 500" version="1.1" xmlns="http://www.w3.org/2000/svg" xmlns:xlink="http://www.w3.org/1999/xlink" xml:space="preserve" xmlns:serif="http://www.serif.com/" style="fill-rule:evenodd;clip-rule:evenodd;stroke-linejoin:round;stroke-miterlimit:2;">
    <g transform="matrix(1,0,0,1,-2119.94,-1133.84)">
        <g id="ArtBoard2" transform="matrix(1,0,0,1.00019,1619.94,613.66)">
            <rect x="500" y="520.084" width="500" height="499.903" style="fill:none;"/>
            <g id="Ebene1" transform="matrix(1,0,0,0.999807,-1619.94,-612.542)">
                <g transform="matrix(1,0,0,1,1025.09,5)">
                    <path d="M1167.26,1509.35L1297.11,1509.35L1445.28,1272.79L1444.99,1237.31L1445.28,1236.85L1337.51,1236.85L1167.26,1509.35Z" style="fill:rgb(171,178,191);"/>
                </g>
                <g transform="matrix(0.835597,0,0,1.07015,1386.13,-99.4391)">
                    <rect x="1168.59" y="1253.37" width="128.966" height="254.64" style="fill:rgb(171,178,191);"/>
                </g>
                <g transform="matrix(0.861633,0,0,0.861633,1006.22,177.19)">
                    <circle cx="1445.28" cy="1298.37" r="61.527" style="fill:rgb(171,178,191);"/>
                </g>
                <g transform="matrix(1,0,0,1,0,5)">
                    <path d="M2470.36,1236.85C2503.24,1236.85 2529.93,1263.54 2529.93,1296.42C2529.93,1329.3 2503.24,1355.99 2470.36,1355.99L2470.36,1236.85Z" style="fill:rgb(171,178,191);"/>
                </g>
                <g transform="matrix(1,0,0,1,0,5)">
                    <path d="M2470.36,1236.85L2470.36,1355.99C2437.48,1355.99 2410.79,1329.3 2410.79,1296.42C2410.79,1263.54 2437.48,1236.85 2470.36,1236.85Z" style="fill:rgb(171,178,191);"/>
                </g>
                <g transform="matrix(1.28713,0,0,1.28713,-709.322,-230.993)">
                    <path d="M2470.36,1236.85C2503.24,1236.85 2529.93,1263.54 2529.93,1296.42C2529.93,1329.3 2503.24,1355.99 2470.36,1355.99L2470.36,1236.85Z" style="fill:rgb(171,178,191);"/>
                </g>
                <g transform="matrix(1.28713,0,0,1.28713,-709.322,-230.993)">
                    <path d="M2470.36,1236.85L2470.36,1355.99C2437.48,1355.99 2410.79,1329.3 2410.79,1296.42C2410.79,1263.54 2437.48,1236.85 2470.36,1236.85Z" style="fill:rgb(171,178,191);"/>
                </g>
            </g>
            <g id="Ebene11" serif:id="Ebene1" transform="matrix(1,0,0,0.999807,-1619.94,-613.542)">
                <g transform="matrix(1,0,0,1,1025.09,0)">
                    <path d="M1167.26,1509.35L1297.11,1509.35L1445.28,1272.79L1444.99,1237.31L1445.28,1236.85L1337.51,1236.85L1167.26,1509.35Z" style="fill:rgb(171,178,191);"/>
                </g>
                <g transform="matrix(0.835597,0,0,1.07015,1386.13,-104.439)">
                    <rect x="1168.59" y="1253.37" width="128.966" height="254.64" style="fill:rgb(220,223,228);"/>
                </g>
                <g transform="matrix(0.861633,0,0,0.861633,1006.22,172.19)">
                    <circle cx="1445.28" cy="1298.37" r="61.527" style="fill:rgb(190,195,204);"/>
                </g>
                <path d="M2470.36,1236.85C2503.24,1236.85 2529.93,1263.54 2529.93,1296.42C2529.93,1329.3 2503.24,1355.99 2470.36,1355.99L2470.36,1236.85Z" style="fill:rgb(220,223,228);"/>
                <path d="M2470.36,1236.85L2470.36,1355.99C2437.48,1355.99 2410.79,1329.3 2410.79,1296.42C2410.79,1263.54 2437.48,1236.85 2470.36,1236.85Z" style="fill:rgb(190,195,204);"/>
                <g transform="matrix(1.28713,0,0,1.28713,-709.322,-235.993)">
                    <path d="M2470.36,1236.85C2503.24,1236.85 2529.93,1263.54 2529.93,1296.42C2529.93,1329.3 2503.24,1355.99 2470.36,1355.99L2470.36,1236.85Z" style="fill:rgb(220,223,228);"/>
                </g>
                <g transform="matrix(1.28713,0,0,1.28713,-709.322,-235.993)">
                    <path d="M2470.36,1236.85L2470.36,1355.99C2437.48,1355.99 2410.79,1329.3 2410.79,1296.42C2410.79,1263.54 2437.48,1236.85 2470.36,1236.85Z" style="fill:rgb(190,195,204);"/>
                </g>
            </g>
        </g>
    </g>
</svg>
