<svg width="124" height="165" viewBox="0 0 124 165" fill="none" xmlns="http://www.w3.org/2000/svg">
<g id="Tablet">
<rect id="Rectangle 4" width="124" height="165" rx="5" fill="#DCDFE4"/>
<circle id="Ellipse 2" cx="63" cy="158" r="3" fill="#282C34" fill-opacity="0.5"/>
<mask id="mask0" mask-type="alpha" maskUnits="userSpaceOnUse" x="8" y="8" width="108" height="143">
<rect id="Rectangle 19" x="8" y="8" width="108" height="143" fill="#C4C4C4"/>
</mask>
<g mask="url(#mask0)">
<g id="Image">
<g id="Group 1">
<mask id="mask1" mask-type="alpha" maskUnits="userSpaceOnUse" x="18" y="13" width="90" height="68">
<rect id="Rectangle 12" x="18" y="13" width="90" height="67.9702" rx="1" fill="#555555"/>
</mask>
<g mask="url(#mask1)">
<rect id="Rectangle 10" width="76.407" height="76.407" rx="1" transform="matrix(0.704649 -0.709556 0.704649 0.709556 -17.5203 94.4032)" fill="#282C34"/>
<rect id="Rectangle 11" width="76.407" height="76.407" rx="1" transform="matrix(0.704648 -0.709557 0.704648 0.709557 27 85.3405)" fill="#282C34"/>
<rect id="Rectangle 9" x="18.5" y="13.5" width="89" height="66.9702" rx="0.5" stroke="#282C34"/>
</g>
</g>
<rect id="Rectangle 13" x="18" y="78.9403" width="90" height="3.08955" rx="1" fill="#282C34" fill-opacity="0.5"/>
</g>
<g id="TextLine">
<rect id="Rectangle 15" x="18" y="111" width="22" height="3" rx="1" fill="#282C34" fill-opacity="0.5"/>
<rect id="Rectangle 14" x="18" y="111" width="22" height="2" rx="1" fill="#282C34"/>
</g>
<g id="TextLine_2">
<rect id="Rectangle 15_2" x="42" y="111" width="14" height="3" rx="1" fill="#282C34" fill-opacity="0.5"/>
<rect id="Rectangle 14_2" x="42" y="111" width="14" height="2" rx="1" fill="#282C34"/>
</g>
<g id="TextLine_3">
<rect id="Rectangle 15_3" x="58" y="111" width="5" height="3" rx="1" fill="#282C34" fill-opacity="0.5"/>
<rect id="Rectangle 14_3" x="58" y="111" width="5" height="2" rx="1" fill="#282C34"/>
</g>
<g id="TextLine_4">
<rect id="Rectangle 15_4" x="65" y="111" width="17" height="3" rx="1" fill="#282C34" fill-opacity="0.5"/>
<rect id="Rectangle 14_4" x="65" y="111" width="17" height="2" rx="1" fill="#282C34"/>
</g>
<g id="TextLine_5">
<rect id="Rectangle 15_5" x="84" y="111" width="20" height="3" rx="1" fill="#282C34" fill-opacity="0.5"/>
<rect id="Rectangle 14_5" x="84" y="111" width="20" height="2" rx="1" fill="#282C34"/>
</g>
<g id="TextLine_6">
<rect id="Rectangle 15_6" x="18" y="105" width="25" height="3" rx="1" fill="#282C34" fill-opacity="0.5"/>
<rect id="Rectangle 14_6" x="18" y="105" width="25" height="2" rx="1" fill="#282C34"/>
</g>
<g id="TextLine_7">
<rect id="Rectangle 15_7" x="45" y="105" width="6" height="3" rx="1" fill="#282C34" fill-opacity="0.5"/>
<rect id="Rectangle 14_7" x="45" y="105" width="6" height="2" rx="1" fill="#282C34"/>
</g>
<g id="TextLine_8">
<rect id="Rectangle 15_8" x="53" y="105" width="11" height="3" rx="1" fill="#282C34" fill-opacity="0.5"/>
<rect id="Rectangle 14_8" x="53" y="105" width="11" height="2" rx="1" fill="#282C34"/>
</g>
<g id="TextLine_9">
<rect id="Rectangle 15_9" x="66" y="105" width="30" height="3" rx="1" fill="#282C34" fill-opacity="0.5"/>
<rect id="Rectangle 14_9" x="66" y="105" width="30" height="2" rx="1" fill="#282C34"/>
</g>
<g id="TextLine_10">
<rect id="Rectangle 15_10" x="18" y="99" width="18" height="3" rx="1" fill="#282C34" fill-opacity="0.5"/>
<rect id="Rectangle 14_10" x="18" y="99" width="18" height="2" rx="1" fill="#282C34"/>
</g>
<g id="TextLine_11">
<rect id="Rectangle 15_11" x="38" y="99" width="9" height="3" rx="1" fill="#282C34" fill-opacity="0.5"/>
<rect id="Rectangle 14_11" x="38" y="99" width="9" height="2" rx="1" fill="#282C34"/>
</g>
<g id="TextLine_12">
<rect id="Rectangle 15_12" x="49" y="99" width="24" height="3" rx="1" fill="#282C34" fill-opacity="0.5"/>
<rect id="Rectangle 14_12" x="49" y="99" width="24" height="2" rx="1" fill="#282C34"/>
</g>
<g id="TextLine_13">
<rect id="Rectangle 15_13" x="75" y="99" width="33" height="3" rx="1" fill="#282C34" fill-opacity="0.5"/>
<rect id="Rectangle 14_13" x="75" y="99" width="33" height="2" rx="1" fill="#282C34"/>
</g>
<g id="TextLine_14">
<rect id="Rectangle 15_14" x="18" y="117" width="6" height="3" rx="1" fill="#282C34" fill-opacity="0.5"/>
<rect id="Rectangle 14_14" x="18" y="117" width="6" height="2" rx="1" fill="#282C34"/>
</g>
<g id="TextLine_15">
<rect id="Rectangle 15_15" x="26" y="117" width="15" height="3" rx="1" fill="#282C34" fill-opacity="0.5"/>
<rect id="Rectangle 14_15" x="26" y="117" width="15" height="2" rx="1" fill="#282C34"/>
</g>
<g id="TextLine_16">
<rect id="Rectangle 15_16" x="43" y="117" width="29" height="3" rx="1" fill="#282C34" fill-opacity="0.5"/>
<rect id="Rectangle 14_16" x="43" y="117" width="29" height="2" rx="1" fill="#282C34"/>
</g>
<g id="TextLine_17">
<rect id="Rectangle 15_17" x="74" y="117" width="25" height="3" rx="1" fill="#282C34" fill-opacity="0.5"/>
<rect id="Rectangle 14_17" x="74" y="117" width="25" height="2" rx="1" fill="#282C34"/>
</g>
<g id="TextLine_18">
<rect id="Rectangle 15_18" x="18" y="123" width="20" height="3" rx="1" fill="#282C34" fill-opacity="0.5"/>
<rect id="Rectangle 14_18" x="18" y="123" width="20" height="2" rx="1" fill="#282C34"/>
</g>
<g id="TextLine_19">
<rect id="Rectangle 15_19" x="40" y="123" width="23" height="3" rx="1" fill="#282C34" fill-opacity="0.5"/>
<rect id="Rectangle 14_19" x="40" y="123" width="23" height="2" rx="1" fill="#282C34"/>
</g>
<g id="TextLine_20">
<rect id="Rectangle 15_20" x="65" y="123" width="16" height="3" rx="1" fill="#282C34" fill-opacity="0.5"/>
<rect id="Rectangle 14_20" x="65" y="123" width="16" height="2" rx="1" fill="#282C34"/>
</g>
<g id="TextLine_21">
<rect id="Rectangle 15_21" x="83" y="123" width="25" height="3" rx="1" fill="#282C34" fill-opacity="0.5"/>
<rect id="Rectangle 14_21" x="83" y="123" width="25" height="2" rx="1" fill="#282C34"/>
</g>
<g id="TextLine_22">
<rect id="Rectangle 15_22" x="18" y="129" width="4" height="3" rx="1" fill="#282C34" fill-opacity="0.5"/>
<rect id="Rectangle 14_22" x="18" y="129" width="4" height="2" rx="1" fill="#282C34"/>
</g>
<g id="TextLine_23">
<rect id="Rectangle 15_23" x="24" y="129" width="10" height="3" rx="1" fill="#282C34" fill-opacity="0.5"/>
<rect id="Rectangle 14_23" x="24" y="129" width="10" height="2" rx="1" fill="#282C34"/>
</g>
<g id="Button">
<rect id="Rectangle 17" x="18" y="142" width="30" height="8" rx="2" fill="#282C34" fill-opacity="0.5"/>
<rect id="Rectangle 16" x="18" y="142" width="30" height="7" rx="2" fill="#282C34"/>
</g>
<g id="HeadLine">
<rect id="Rectangle 15_24" x="18" y="89" width="15" height="7" rx="3" fill="#282C34" fill-opacity="0.5"/>
<rect id="Rectangle 14_24" x="18" y="89" width="15" height="6" rx="3" fill="#282C34"/>
</g>
<g id="HeadLine_2">
<rect id="Rectangle 15_25" x="35" y="89" width="28" height="7" rx="3" fill="#282C34" fill-opacity="0.5"/>
<rect id="Rectangle 14_25" x="35" y="89" width="28" height="6" rx="3" fill="#282C34"/>
</g>
</g>
</g>
</svg>
